# Blender v2.79 (sub 0) OBJ File: 'bakje.blend'
# www.blender.org
mtllib bakje.mtl
o Cube
v 0.454545 -0.066600 -0.454545
v 0.454545 -0.066600 0.454545
v -0.454545 -0.066600 0.454545
v -0.454545 -0.066600 -0.454545
v 0.454545 0.066600 -0.454545
v 0.454545 0.066600 0.454545
v -0.454545 0.066600 0.454545
v -0.454545 0.066600 -0.454545
v 0.500000 -0.066600 -0.454545
v 0.500000 -0.066600 0.454545
v 0.500000 0.066600 -0.454545
v 0.500000 0.066600 0.454545
v 0.454545 -0.066600 -0.500000
v -0.454545 -0.066600 -0.500000
v 0.454545 0.066600 -0.499999
v -0.454545 0.066600 -0.500000
v -0.500000 -0.066600 0.454545
v -0.500000 -0.066600 -0.454545
v -0.500000 0.066600 0.454545
v -0.500000 0.066600 -0.454545
v 0.454545 -0.066600 0.500000
v -0.454545 -0.066600 0.500000
v 0.454545 0.066600 0.500000
v -0.454545 0.066600 0.499999
v 0.454545 -0.066600 0.500000
v -0.454545 -0.066600 0.500000
v 0.454545 0.066600 0.500000
v -0.454545 0.066600 0.499999
v 0.454545 0.061834 -0.454545
v 0.454545 0.061834 0.454545
v 0.500000 0.266400 -0.454545
v 0.500000 0.266400 0.454545
v 0.454545 0.052233 -0.454545
v -0.454545 0.052233 -0.454545
v 0.454545 0.266400 -0.499999
v -0.454545 0.266400 -0.500000
v -0.454545 0.066600 0.454545
v -0.454545 0.066600 -0.454545
v -0.500000 0.266400 0.454545
v -0.500000 0.266400 -0.454545
v 0.454545 0.039920 0.454546
v -0.454545 0.039920 0.454545
v 0.454545 0.266399 0.500000
v -0.454545 0.266399 0.500000
v 0.500000 0.066600 0.500000
v 0.500000 0.066600 0.454545
v 0.500000 0.266399 0.500000
v 0.500000 0.266400 0.454546
v 0.500000 -0.066599 0.454545
v 0.500000 0.066601 0.454545
v 0.500000 -0.066599 0.500000
v 0.500000 0.066600 0.500000
v 0.500000 0.066600 -0.500000
v 0.454545 0.066600 -0.500000
v 0.500000 0.266400 -0.500000
v 0.454545 0.266400 -0.500000
v 0.454545 -0.066599 -0.500000
v 0.454545 0.066601 -0.499999
v 0.500000 -0.066599 -0.500000
v 0.500000 0.066601 -0.500000
v -0.500000 0.066600 -0.500000
v -0.500000 0.066600 -0.454545
v -0.500000 0.266400 -0.500000
v -0.500000 0.266400 -0.454545
v -0.500000 -0.066600 -0.454545
v -0.500000 0.066599 -0.454545
v -0.500000 -0.066600 -0.500000
v -0.500000 0.066599 -0.500000
v -0.500000 0.066600 0.500000
v -0.454545 0.066600 0.500000
v -0.500000 0.266400 0.500000
v -0.454545 0.266400 0.500000
v -0.454545 -0.066600 0.500000
v -0.454545 0.066600 0.500000
v -0.500000 -0.066600 0.500000
v -0.500000 0.066600 0.500000
vt 0.000000 0.000000
vt 0.000000 0.000000
vt 0.000000 0.000000
vt 0.000000 0.000000
vt 0.999900 0.999900
vt 0.000100 0.999900
vt 0.000100 0.000100
vt 0.999900 0.000100
vt 0.000000 0.000000
vt 0.000000 0.000000
vt 0.000000 0.000000
vt 0.000000 0.000000
vt 0.000000 0.000000
vt 0.000000 0.000000
vt 0.000000 0.000000
vt 0.000000 0.000000
vt 0.000000 0.000000
vt 0.000000 0.000000
vt 0.000000 0.000000
vt 0.999900 0.000100
vt 0.999900 0.999900
vt 0.000100 0.999900
vt 0.000100 0.000100
vt 0.000000 0.000000
vt 0.000000 0.000000
vt 0.000000 0.000000
vt 0.000000 0.000000
vt 0.000000 0.000000
vt 0.000000 0.000000
vt 0.999900 0.000100
vt 0.999900 0.999900
vt 0.000100 0.999900
vt 0.000100 0.000100
vt 0.000023 0.999978
vt 0.000022 0.000025
vt 0.050020 0.000022
vt 0.050020 0.999975
vt 0.000000 0.000000
vt 0.000000 0.000000
vt 0.000100 0.999900
vt 0.000100 0.000100
vt 0.999900 0.000100
vt 0.999900 0.999900
vt 0.000000 0.000000
vt 0.000000 0.000000
vt 0.000000 0.000000
vt 0.000000 0.000000
vt 0.000000 0.000000
vt 0.000000 0.000000
vt 0.000000 0.000000
vt 0.000000 0.000000
vt 0.000000 0.000000
vt 0.000000 0.000000
vt 0.000000 0.000000
vt 0.000000 0.000000
vt 0.000000 0.000000
vt 0.999900 0.000100
vt 0.999899 0.999900
vt 0.000100 0.999900
vt 0.000100 0.000100
vt 0.000000 0.000000
vt 0.000000 0.000000
vt 0.000000 0.000000
vt 0.000081 0.000081
vt 0.650767 0.000081
vt 0.650768 0.999919
vt 0.000081 0.999919
vt 0.000000 0.000000
vt 0.045014 0.000021
vt 0.045014 0.978000
vt 0.021999 0.999979
vt 0.000021 0.976965
vt 0.000082 0.000082
vt 0.666640 0.000082
vt 0.666640 0.999918
vt 0.000082 0.999918
vt 0.000000 0.000000
vt 0.000000 0.000000
vt 0.000018 0.999982
vt 0.000018 0.000018
vt 0.033351 0.000018
vt 0.033351 0.999982
vt 0.000082 0.000082
vt 0.666640 0.000082
vt 0.666640 0.999918
vt 0.000082 0.999918
vt 0.000082 0.000082
vt 0.666269 0.000082
vt 0.666269 0.999918
vt 0.000082 0.999918
vt 0.000000 0.000000
vt 0.000000 0.000000
vt 0.000082 0.000082
vt 0.666639 0.000082
vt 0.666639 0.999918
vt 0.000082 0.999918
vt 0.000000 0.000000
vt 0.000077 0.000077
vt 0.587864 0.000077
vt 0.587864 0.999923
vt 0.000077 0.999923
vt 0.000000 0.000000
vt 0.000000 0.000000
vt 0.000000 0.000000
vt 0.000082 0.000082
vt 0.666639 0.000082
vt 0.666639 0.999918
vt 0.000082 0.999918
vt 0.000018 0.000018
vt 0.033350 0.000020
vt 0.033350 0.999982
vt 0.000018 0.999981
vt 0.000018 0.999982
vt 0.033351 0.000018
vt 0.033351 0.999982
vt 0.040751 0.000020
vt 0.040751 0.980037
vt 0.019963 0.999980
vt 0.000020 0.979192
vt 0.050020 0.000025
vt 0.050020 0.999978
vt 0.000023 0.999975
vt 0.000000 0.000000
vt 0.000000 0.000000
vt 0.000022 0.999971
vt 0.050022 0.000029
vt 0.050022 0.999978
vt 0.000020 0.000018
vt 0.033352 0.000018
vt 0.033352 0.999982
vt 0.000018 0.999982
vt 0.000000 0.000000
vt 0.000000 0.000000
vt 0.000000 0.000000
vt 0.000018 0.999982
vt 0.033354 0.000018
vt 0.033354 0.999982
vt 0.050019 0.000022
vt 0.050020 0.999977
vt 0.000022 0.999978
vt 0.000000 0.000000
vt 0.000000 0.000000
vt 0.000022 0.999973
vt 0.050020 0.000027
vt 0.050021 0.999978
vt 0.000018 0.000018
vt 0.033351 0.000018
vt 0.033351 0.999982
vt 0.000018 0.999982
vt 0.000000 0.000000
vt 0.000000 0.000000
vt 0.000000 0.000000
vt 0.050020 0.000022
vt 0.050020 0.999978
vt 0.000022 0.999978
vt 0.000023 0.000022
vt 0.000000 0.000000
vt 0.000000 0.000000
vt 0.000000 0.000000
vt 0.033351 0.000018
vt 0.033351 0.999982
vt 0.000018 0.999982
vt 0.000000 0.000000
vt 0.046062 0.000021
vt 0.046062 0.977500
vt 0.022499 0.999979
vt 0.000021 0.976416
vt 0.000018 0.999982
vt 0.033351 0.000018
vt 0.033351 0.999982
vt 0.050020 0.000022
vt 0.050020 0.999978
vt 0.000022 0.999978
vt 0.000022 0.000022
vt 0.000022 0.999976
vt 0.050020 0.000024
vt 0.050020 0.999978
vt 0.000000 0.000000
vn 0.0000 -1.0000 -0.0000
vn 0.0000 1.0000 -0.0000
vn 0.0000 -0.0000 -1.0000
vn 1.0000 -0.0000 0.0000
vn 0.0000 -0.0000 1.0000
vn -1.0000 -0.0000 -0.0000
vn -0.9762 0.2169 -0.0000
vn -0.6746 0.2998 0.6746
vn -0.0000 0.2076 0.9782
vn 0.9751 0.2218 0.0000
vn 0.0000 0.1968 -0.9804
vn -0.6802 0.2730 -0.6802
vn 0.6773 0.2875 0.6773
vn 0.6731 0.3063 -0.6731
usemtl Material.001
s off
f 1/1/1 2/2/1 3/3/1 4/4/1
f 5/5/2 8/6/2 7/7/2 6/8/2
f 2/2/1 1/1/1 9/9/1 10/10/1
f 3/3/1 2/2/1 21/11/1 22/12/1
f 7/13/2 8/14/2 38/15/2 37/16/2
f 8/14/3 5/17/3 33/18/3 34/19/3
f 9/20/4 11/21/4 12/22/4 10/23/4
f 6/24/5 12/25/5 32/26/5 30/27/5
f 6/24/5 2/2/5 10/10/5 12/25/5
f 9/9/1 1/1/1 57/28/1 59/29/1
f 15/30/3 13/31/3 14/32/3 16/33/3
f 16/34/3 14/35/3 67/36/3 68/37/3
f 1/1/1 4/4/1 14/35/1 13/38/1
f 5/17/4 1/1/4 13/38/4 15/39/4
f 17/40/6 19/41/6 20/42/6 18/43/6
f 8/14/3 4/4/3 18/44/3 20/45/3
f 4/4/1 3/3/1 17/46/1 18/44/1
f 7/13/2 19/47/2 76/48/2 74/49/2
f 24/50/5 22/12/5 26/51/5 28/52/5
f 7/13/6 24/50/6 44/53/6 42/54/6
f 7/13/6 3/3/6 22/12/6 24/50/6
f 21/11/1 2/2/1 49/55/1 51/56/1
f 25/57/5 27/58/5 28/59/5 26/60/5
f 22/12/5 21/11/5 25/61/5 26/51/5
f 23/62/5 24/50/5 28/52/5 27/63/5
f 21/11/5 23/62/5 27/63/5 25/61/5
f 29/64/7 30/65/7 32/66/7 31/67/7
f 5/17/4 6/24/4 30/27/4 29/68/4
f 29/69/8 31/70/8 55/71/8 56/72/8
f 12/73/4 11/74/4 31/75/4 32/76/4
f 34/19/9 33/18/9 35/77/9 36/78/9
f 36/79/3 16/80/3 61/81/3 63/82/3
f 15/83/3 16/84/3 36/85/3 35/86/3
f 5/17/4 15/39/4 35/77/4 33/18/4
f 37/87/10 38/88/10 40/89/10 39/90/10
f 19/47/1 7/13/1 70/91/1 69/92/1
f 20/93/6 19/94/6 39/95/6 40/96/6
f 8/14/3 20/45/3 40/97/3 38/15/3
f 41/98/11 42/99/11 44/100/11 43/101/11
f 6/24/5 7/13/5 42/54/5 41/102/5
f 6/24/3 41/102/3 48/103/3 46/104/3
f 24/105/5 23/106/5 43/107/5 44/108/5
f 45/109/4 46/110/4 48/111/4 47/112/4
f 23/62/1 6/24/1 46/104/1 45/109/1
f 43/113/5 23/62/5 45/114/5 47/115/5
f 41/116/12 43/117/12 47/118/12 48/119/12
f 49/120/4 50/121/4 52/122/4 51/56/4
f 6/24/2 23/62/2 52/123/2 50/124/2
f 2/2/3 6/24/3 50/124/3 49/55/3
f 23/125/5 21/11/5 51/126/5 52/127/5
f 53/128/3 54/129/3 56/130/3 55/131/3
f 5/17/6 29/68/6 56/132/6 54/133/6
f 11/134/1 5/17/1 54/133/1 53/128/1
f 31/135/4 11/134/4 53/136/4 55/137/4
f 57/138/3 58/139/3 60/140/3 59/29/3
f 5/17/2 11/134/2 60/141/2 58/142/2
f 1/1/6 5/17/6 58/142/6 57/28/6
f 11/143/4 9/9/4 59/144/4 60/145/4
f 61/146/6 62/147/6 64/148/6 63/149/6
f 16/80/1 8/14/1 62/150/1 61/146/1
f 8/14/5 34/19/5 64/151/5 62/150/5
f 34/19/13 36/78/13 63/152/13 64/151/13
f 65/153/6 66/154/6 68/155/6 67/156/6
f 4/4/5 8/14/5 66/157/5 65/158/5
f 8/14/2 16/80/2 68/159/2 66/157/2
f 14/35/1 4/4/1 65/158/1 67/156/1
f 69/92/5 70/160/5 72/161/5 71/162/5
f 7/13/4 37/16/4 72/163/4 70/91/4
f 37/164/14 39/165/14 71/166/14 72/167/14
f 39/168/6 19/47/6 69/169/6 71/170/6
f 73/171/5 74/172/5 76/173/5 75/174/5
f 19/175/6 17/46/6 75/176/6 76/177/6
f 3/3/4 7/13/4 74/49/4 73/178/4
f 17/46/1 3/3/1 73/178/1 75/174/1
