# Blender v2.79 (sub 0) OBJ File: 'tafelmeubel.blend'
# www.blender.org
mtllib tafelmeubel.mtl
o Cube
v -1.389154 0.855000 -3.776454
v -1.389154 0.855000 3.719988
v -2.837242 0.855000 3.719987
v -2.837242 0.855000 -3.776456
v -1.389153 0.995000 -3.776452
v -1.389154 0.995000 3.719990
v -2.837242 0.995000 3.719987
v -2.837242 0.995000 -3.776454
v -1.389153 0.855000 1.845878
v -1.389154 0.960000 1.845879
v -2.113198 0.855000 -1.902344
v -1.389153 0.855000 -1.754211
v -1.389153 0.855000 -1.902344
v -1.389153 0.995000 -1.902344
v -1.389153 0.855000 -1.754211
v -1.389153 0.995000 0.119901
v -1.389153 0.000000 2.970344
v -1.389153 1.000000 2.970344
v -1.389153 0.000000 -3.026810
v -1.389153 1.000000 -3.026810
v 0.058936 0.000000 2.970344
v 0.058936 1.000000 2.970344
v 0.058936 0.000000 -3.026810
v 0.058936 1.000000 -3.026810
v 2.955113 1.000000 -3.026810
v 2.955113 1.500000 -3.026810
v -1.751175 1.000000 -3.026810
v -1.751175 1.500000 -3.026810
v 2.955113 1.000000 -3.776455
v 2.955113 1.500000 -3.776455
v -1.751175 1.000000 -3.776454
v -1.751175 1.500000 -3.776454
v 2.955113 1.000000 3.719988
v 2.955113 1.500000 3.719988
v -1.751175 1.000000 3.719988
v -1.751175 1.500000 3.719988
v 2.955113 1.000000 2.970344
v 2.955113 1.500000 2.970344
v -1.751175 1.000000 2.970344
v -1.751175 1.500000 2.970344
v 0.058936 0.000000 -1.527522
v 0.058936 1.000000 -1.527522
v 0.058936 0.000000 -3.026810
v 0.058936 1.000000 -3.026810
v 2.955113 0.000000 -1.527522
v 2.955113 1.000000 -1.527522
v 2.955113 0.000000 -3.026810
v 2.955113 1.000000 -3.026810
v 0.058936 0.000000 2.970344
v 0.058936 1.000000 2.970344
v 0.058936 0.000000 1.471056
v 0.058936 1.000000 1.471056
v 2.955113 0.000000 2.970344
v 2.955113 1.000000 2.970344
v 2.955113 0.000000 1.471056
v 2.955113 1.000000 1.471056
v -1.751175 1.000000 2.970344
v -1.751175 1.500000 2.970344
v -1.751175 1.000000 -3.026810
v -1.751175 1.500000 -3.026810
v -1.027131 1.000000 2.970344
v -1.027131 1.500000 2.970344
v -1.027131 1.000000 -3.026810
v -1.027131 1.500000 -3.026810
vt 0.500000 1.000000
vt 0.933013 0.750000
vt 0.933013 0.250000
vt 0.500000 0.000000
vt 0.066987 0.250000
vt 0.066987 0.750000
vt 0.500000 1.000000
vt 0.933013 0.750000
vt 0.933013 0.250000
vt 0.500000 0.000000
vt 0.066987 0.250000
vt 0.066987 0.750000
vt 0.000000 0.000000
vt 1.000000 0.000000
vt 1.000000 1.000000
vt 0.000000 1.000000
vt 0.000000 0.000000
vt 1.000000 0.000000
vt 1.000000 1.000000
vt 0.000000 1.000000
vt 0.000000 0.000000
vt 1.000000 0.000000
vt 1.000000 1.000000
vt 0.000000 1.000000
vt 0.000000 0.000000
vt 1.000000 0.000000
vt 1.000000 1.000000
vt 0.000000 1.000000
vt 0.500000 1.000000
vt 0.933013 0.750000
vt 0.933013 0.250000
vt 0.066987 0.250000
vt 0.066987 0.750000
vt 0.500000 1.000000
vt 0.933013 0.750000
vt 0.933013 0.250000
vt 0.066987 0.250000
vt 0.066987 0.750000
vt 0.000000 0.000000
vt 1.000000 0.000000
vt 1.000000 1.000000
vt 0.000000 1.000000
vt 0.000000 0.000000
vt 1.000000 0.000000
vt 1.000000 1.000000
vt 0.000000 1.000000
vt 0.000000 0.000000
vt 1.000000 0.000000
vt 1.000000 1.000000
vt 0.000000 1.000000
vt 0.000000 0.000000
vt 1.000000 0.000000
vt 1.000000 1.000000
vt 0.000000 1.000000
vt 1.000000 0.000000
vt 1.000000 1.000000
vt 0.000000 0.000000
vt 0.000000 1.000000
vt 0.000000 0.000000
vt 1.000000 0.000000
vt 1.000000 1.000000
vt 0.000000 1.000000
vt 0.000000 0.000000
vt 1.000000 0.000000
vt 1.000000 1.000000
vt 0.000000 1.000000
vt 0.000000 0.000000
vt 1.000000 0.000000
vt 1.000000 1.000000
vt 0.000000 1.000000
vt 0.000000 0.000000
vt 1.000000 0.000000
vt 1.000000 1.000000
vt 0.000000 1.000000
vt 1.000000 0.000000
vt 1.000000 1.000000
vt 0.000000 0.000000
vt 0.000000 1.000000
vt 0.000000 0.000000
vt 1.000000 0.000000
vt 1.000000 1.000000
vt 0.000000 1.000000
vt 0.000000 0.000000
vt 1.000000 0.000000
vt 1.000000 1.000000
vt 0.000000 1.000000
vt 0.000000 0.000000
vt 1.000000 0.000000
vt 1.000000 1.000000
vt 0.000000 1.000000
vt 0.000000 0.000000
vt 1.000000 0.000000
vt 1.000000 1.000000
vt 0.000000 1.000000
vt 1.000000 0.000000
vt 1.000000 1.000000
vt 0.000000 0.000000
vt 0.000000 1.000000
vt 0.000000 0.000000
vt 1.000000 0.000000
vt 1.000000 1.000000
vt 0.000000 1.000000
vt 0.000000 0.000000
vt 1.000000 0.000000
vt 1.000000 1.000000
vt 0.000000 1.000000
vt 0.000000 0.000000
vt 1.000000 0.000000
vt 1.000000 1.000000
vt 0.000000 1.000000
vt 0.000000 0.000000
vt 1.000000 0.000000
vt 1.000000 1.000000
vt 0.000000 1.000000
vt 1.000000 0.000000
vt 1.000000 1.000000
vt 0.000000 0.000000
vt 0.000000 1.000000
vt 0.000000 0.000000
vt 1.000000 0.000000
vt 1.000000 1.000000
vt 0.000000 1.000000
vt 0.000000 0.000000
vt 1.000000 0.000000
vt 1.000000 1.000000
vt 0.000000 1.000000
vt 0.000000 0.000000
vt 1.000000 0.000000
vt 1.000000 1.000000
vt 0.000000 1.000000
vt 0.000000 0.000000
vt 1.000000 0.000000
vt 1.000000 1.000000
vt 0.000000 1.000000
vt 1.000000 0.000000
vt 1.000000 1.000000
vt 0.000000 0.000000
vt 0.000000 1.000000
vt 0.000000 0.000000
vt 1.000000 0.000000
vt 1.000000 1.000000
vt 0.000000 1.000000
vt 0.000000 0.000000
vt 1.000000 0.000000
vt 1.000000 1.000000
vt 0.000000 1.000000
vt 0.000000 0.000000
vt 1.000000 0.000000
vt 1.000000 1.000000
vt 0.000000 1.000000
vt 0.000000 0.000000
vt 1.000000 0.000000
vt 1.000000 1.000000
vt 0.000000 1.000000
vt 1.000000 0.000000
vt 1.000000 1.000000
vt 0.000000 0.000000
vt 0.000000 1.000000
vn 0.0000 -1.0000 0.0000
vn 0.0000 1.0000 0.0000
vn 1.0000 -0.0000 -0.0000
vn -0.0000 -0.0000 1.0000
vn -1.0000 -0.0000 -0.0000
vn 0.0000 0.0000 -1.0000
usemtl Material.001
s off
f 1/1/1 13/2/1 15/3/1 2/4/1 3/5/1 4/6/1
f 5/7/2 8/8/2 7/9/2 6/10/2 16/11/2 14/12/2
f 1/13/3 5/14/3 14/15/3 13/16/3
f 2/17/4 6/18/4 7/19/4 3/20/4
f 3/21/5 7/22/5 8/23/5 4/24/5
f 5/25/6 1/26/6 4/27/6 8/28/6
f 13/29/3 14/30/3 16/31/3 6/10/3 10/32/3 12/33/3
f 12/34/3 10/35/3 6/36/3 2/4/3 15/37/3 13/38/3
f 17/39/5 18/40/5 20/41/5 19/42/5
f 19/43/6 20/44/6 24/45/6 23/46/6
f 23/47/3 24/48/3 22/49/3 21/50/3
f 21/51/4 22/52/4 18/53/4 17/54/4
f 19/43/1 23/55/1 21/56/1 17/54/1
f 24/57/2 20/44/2 18/53/2 22/58/2
f 25/59/4 26/60/4 28/61/4 27/62/4
f 27/63/5 28/64/5 32/65/5 31/66/5
f 31/67/6 32/68/6 30/69/6 29/70/6
f 29/71/3 30/72/3 26/73/3 25/74/3
f 27/63/1 31/75/1 29/76/1 25/74/1
f 32/77/2 28/64/2 26/73/2 30/78/2
f 33/79/4 34/80/4 36/81/4 35/82/4
f 35/83/5 36/84/5 40/85/5 39/86/5
f 39/87/6 40/88/6 38/89/6 37/90/6
f 37/91/3 38/92/3 34/93/3 33/94/3
f 35/83/1 39/95/1 37/96/1 33/94/1
f 40/97/2 36/84/2 34/93/2 38/98/2
f 41/99/5 42/100/5 44/101/5 43/102/5
f 43/103/6 44/104/6 48/105/6 47/106/6
f 47/107/3 48/108/3 46/109/3 45/110/3
f 45/111/4 46/112/4 42/113/4 41/114/4
f 43/103/1 47/115/1 45/116/1 41/114/1
f 48/117/2 44/104/2 42/113/2 46/118/2
f 49/119/5 50/120/5 52/121/5 51/122/5
f 51/123/6 52/124/6 56/125/6 55/126/6
f 55/127/3 56/128/3 54/129/3 53/130/3
f 53/131/4 54/132/4 50/133/4 49/134/4
f 51/123/1 55/135/1 53/136/1 49/134/1
f 56/137/2 52/124/2 50/133/2 54/138/2
f 57/139/5 58/140/5 60/141/5 59/142/5
f 59/143/6 60/144/6 64/145/6 63/146/6
f 63/147/3 64/148/3 62/149/3 61/150/3
f 61/151/4 62/152/4 58/153/4 57/154/4
f 59/143/1 63/155/1 61/156/1 57/154/1
f 64/157/2 60/144/2 58/153/2 62/158/2
l 12 9
l 13 12
l 13 11
